# Blender v2.76 (sub 0) OBJ File: 'testPlayer.blend'
# www.blender.org
mtllib testPlayer.mtl
o Cylinder_Cylinder.001
v 0.000000 -1.000000 -0.500000
v 0.000000 1.000000 -0.500000
v 0.097545 -1.000000 -0.490393
v 0.097545 1.000000 -0.490393
v 0.191342 -1.000000 -0.461940
v 0.191342 1.000000 -0.461940
v 0.277785 -1.000000 -0.415735
v 0.277785 1.000000 -0.415735
v 0.353553 -1.000000 -0.353553
v 0.353553 1.000000 -0.353553
v 0.415735 -1.000000 -0.277785
v 0.415735 1.000000 -0.277785
v 0.461940 -1.000000 -0.191342
v 0.461940 1.000000 -0.191342
v 0.490393 -1.000000 -0.097545
v 0.490393 1.000000 -0.097545
v 0.500000 -1.000000 -0.000000
v 0.500000 1.000000 -0.000000
v 0.490393 -1.000000 0.097545
v 0.490393 1.000000 0.097545
v 0.461940 -1.000000 0.191342
v 0.461940 1.000000 0.191342
v 0.415735 -1.000000 0.277785
v 0.415735 1.000000 0.277785
v 0.353553 -1.000000 0.353553
v 0.353553 1.000000 0.353553
v 0.277785 -1.000000 0.415735
v 0.277785 1.000000 0.415735
v 0.191342 -1.000000 0.461940
v 0.191342 1.000000 0.461940
v 0.097545 -1.000000 0.490393
v 0.097545 1.000000 0.490393
v -0.000000 -1.000000 0.500000
v -0.000000 1.000000 0.500000
v -0.097545 -1.000000 0.490393
v -0.097545 1.000000 0.490393
v -0.191342 -1.000000 0.461940
v -0.191342 1.000000 0.461940
v -0.277785 -1.000000 0.415735
v -0.277785 1.000000 0.415735
v -0.353554 -1.000000 0.353553
v -0.353554 1.000000 0.353553
v -0.415735 -1.000000 0.277785
v -0.415735 1.000000 0.277785
v -0.461940 -1.000000 0.191341
v -0.461940 1.000000 0.191341
v -0.490393 -1.000000 0.097545
v -0.490393 1.000000 0.097545
v -0.500000 -1.000000 -0.000000
v -0.500000 1.000000 -0.000000
v -0.490393 -1.000000 -0.097546
v -0.490393 1.000000 -0.097546
v -0.461940 -1.000000 -0.191342
v -0.461940 1.000000 -0.191342
v -0.415734 -1.000000 -0.277786
v -0.415734 1.000000 -0.277786
v -0.353553 -1.000000 -0.353554
v -0.353553 1.000000 -0.353554
v -0.277785 -1.000000 -0.415735
v -0.277785 1.000000 -0.415735
v -0.191341 -1.000000 -0.461940
v -0.191341 1.000000 -0.461940
v -0.097544 -1.000000 -0.490393
v -0.097544 1.000000 -0.490393
vt 0.156336 0.318869
vt 0.125093 0.318869
vt 0.125090 0.000125
vt 0.093851 0.318869
vt 0.093848 0.000125
vt 0.062608 0.318870
vt 0.062605 0.000125
vt 0.031366 0.318870
vt 0.031362 0.000126
vt 0.000124 0.318870
vt 0.000120 0.000126
vt 0.999880 0.318863
vt 0.968638 0.318864
vt 0.968638 0.000120
vt 0.937395 0.318864
vt 0.937395 0.000120
vt 0.906153 0.318864
vt 0.906153 0.000120
vt 0.874911 0.318864
vt 0.874910 0.000120
vt 0.843668 0.318864
vt 0.843668 0.000120
vt 0.812426 0.318864
vt 0.812425 0.000120
vt 0.781184 0.318864
vt 0.781183 0.000120
vt 0.749941 0.318864
vt 0.749940 0.000120
vt 0.718699 0.318864
vt 0.718698 0.000120
vt 0.687456 0.318864
vt 0.687455 0.000121
vt 0.656214 0.318865
vt 0.656213 0.000121
vt 0.624972 0.318865
vt 0.624970 0.000121
vt 0.593729 0.318865
vt 0.593728 0.000121
vt 0.562487 0.318865
vt 0.562485 0.000121
vt 0.531245 0.318865
vt 0.531243 0.000121
vt 0.500002 0.318866
vt 0.500000 0.000122
vt 0.468760 0.318866
vt 0.468758 0.000122
vt 0.437517 0.318866
vt 0.437515 0.000122
vt 0.406275 0.318866
vt 0.406273 0.000122
vt 0.375032 0.318866
vt 0.375030 0.000122
vt 0.343790 0.318867
vt 0.343787 0.000123
vt 0.312548 0.318867
vt 0.312545 0.000123
vt 0.281305 0.318867
vt 0.281302 0.000123
vt 0.250063 0.318868
vt 0.250060 0.000123
vt 0.218820 0.318868
vt 0.218817 0.000124
vt 0.352978 0.376610
vt 0.577279 0.354519
vt 0.375069 0.600911
vt 0.187578 0.318868
vt 0.156333 0.000124
vt 0.187575 0.000124
vt 0.281921 0.578819
vt 0.057619 0.600911
vt 0.259829 0.354518
vt 0.999880 0.000120
vt 0.599370 0.578820
vt 0.577279 0.600912
vt 0.551302 0.618269
vt 0.522438 0.630225
vt 0.491795 0.636320
vt 0.460553 0.636320
vt 0.429911 0.630225
vt 0.401047 0.618269
vt 0.352978 0.578820
vt 0.335620 0.552842
vt 0.323665 0.523978
vt 0.317569 0.493336
vt 0.317569 0.462094
vt 0.323665 0.431452
vt 0.335621 0.402587
vt 0.375070 0.354519
vt 0.401047 0.337161
vt 0.429911 0.325205
vt 0.460553 0.319110
vt 0.491796 0.319110
vt 0.522438 0.325205
vt 0.551302 0.337161
vt 0.599370 0.376610
vt 0.616728 0.402587
vt 0.628684 0.431451
vt 0.634779 0.462094
vt 0.634779 0.493336
vt 0.628684 0.523978
vt 0.616728 0.552843
vt 0.035528 0.376611
vt 0.057620 0.354519
vt 0.083597 0.337162
vt 0.112461 0.325206
vt 0.143103 0.319110
vt 0.174345 0.319110
vt 0.204988 0.325205
vt 0.233852 0.337161
vt 0.281921 0.376610
vt 0.299279 0.402587
vt 0.311235 0.431451
vt 0.317330 0.462094
vt 0.317330 0.493336
vt 0.311235 0.523978
vt 0.299279 0.552842
vt 0.259830 0.600911
vt 0.233852 0.618268
vt 0.204987 0.630225
vt 0.174345 0.636320
vt 0.143103 0.636319
vt 0.112461 0.630224
vt 0.083596 0.618268
vt 0.035528 0.578819
vt 0.018171 0.552842
vt 0.006215 0.523978
vt 0.000120 0.493336
vt 0.000120 0.462094
vt 0.006215 0.431452
vt 0.018171 0.402588
vn 0.098000 0.000000 -0.995200
vn 0.290300 0.000000 -0.956900
vn 0.471400 0.000000 -0.881900
vn 0.634400 0.000000 -0.773000
vn 0.773000 0.000000 -0.634400
vn 0.881900 0.000000 -0.471400
vn 0.956900 0.000000 -0.290300
vn 0.995200 0.000000 -0.098000
vn 0.995200 0.000000 0.098000
vn 0.956900 0.000000 0.290300
vn 0.881900 0.000000 0.471400
vn 0.773000 0.000000 0.634400
vn 0.634400 0.000000 0.773000
vn 0.471400 0.000000 0.881900
vn 0.290300 0.000000 0.956900
vn 0.098000 0.000000 0.995200
vn -0.098000 0.000000 0.995200
vn -0.290300 0.000000 0.956900
vn -0.471400 0.000000 0.881900
vn -0.634400 0.000000 0.773000
vn -0.773000 0.000000 0.634400
vn -0.881900 0.000000 0.471400
vn -0.956900 0.000000 0.290300
vn -0.995200 0.000000 0.098000
vn -0.995200 0.000000 -0.098000
vn -0.956900 0.000000 -0.290300
vn -0.881900 0.000000 -0.471400
vn -0.773000 0.000000 -0.634400
vn -0.634400 0.000000 -0.773000
vn -0.471400 0.000000 -0.881900
vn 0.000000 1.000000 0.000000
vn -0.098000 0.000000 -0.995200
vn -0.290300 0.000000 -0.956900
vn 0.000000 -1.000000 0.000000
usemtl Material
s off
f 2/1/1 4/2/1 3/3/1
f 4/2/2 6/4/2 5/5/2
f 6/4/3 8/6/3 7/7/3
f 8/6/4 10/8/4 9/9/4
f 10/8/5 12/10/5 11/11/5
f 12/12/6 14/13/6 13/14/6
f 14/13/7 16/15/7 15/16/7
f 16/15/8 18/17/8 17/18/8
f 18/17/9 20/19/9 19/20/9
f 20/19/10 22/21/10 21/22/10
f 22/21/11 24/23/11 23/24/11
f 24/23/12 26/25/12 25/26/12
f 26/25/13 28/27/13 27/28/13
f 28/27/14 30/29/14 29/30/14
f 30/29/15 32/31/15 31/32/15
f 32/31/16 34/33/16 33/34/16
f 34/33/17 36/35/17 35/36/17
f 36/35/18 38/37/18 37/38/18
f 38/37/19 40/39/19 39/40/19
f 40/39/20 42/41/20 41/42/20
f 42/41/21 44/43/21 43/44/21
f 44/43/22 46/45/22 45/46/22
f 46/45/23 48/47/23 47/48/23
f 48/47/24 50/49/24 49/50/24
f 50/49/25 52/51/25 51/52/25
f 52/51/26 54/53/26 53/54/26
f 54/53/27 56/55/27 55/56/27
f 56/55/28 58/57/28 57/58/28
f 58/57/29 60/59/29 59/60/29
f 60/59/30 62/61/30 61/62/30
f 38/63/31 22/64/31 54/65/31
f 64/66/32 2/1/32 1/67/32
f 62/61/33 64/66/33 63/68/33
f 31/69/34 47/70/34 15/71/34
f 1/67/1 2/1/1 3/3/1
f 3/3/2 4/2/2 5/5/2
f 5/5/3 6/4/3 7/7/3
f 7/7/4 8/6/4 9/9/4
f 9/9/5 10/8/5 11/11/5
f 11/72/6 12/12/6 13/14/6
f 13/14/7 14/13/7 15/16/7
f 15/16/8 16/15/8 17/18/8
f 17/18/9 18/17/9 19/20/9
f 19/20/10 20/19/10 21/22/10
f 21/22/11 22/21/11 23/24/11
f 23/24/12 24/23/12 25/26/12
f 25/26/13 26/25/13 27/28/13
f 27/28/14 28/27/14 29/30/14
f 29/30/15 30/29/15 31/32/15
f 31/32/16 32/31/16 33/34/16
f 33/34/17 34/33/17 35/36/17
f 35/36/18 36/35/18 37/38/18
f 37/38/19 38/37/19 39/40/19
f 39/40/20 40/39/20 41/42/20
f 41/42/21 42/41/21 43/44/21
f 43/44/22 44/43/22 45/46/22
f 45/46/23 46/45/23 47/48/23
f 47/48/24 48/47/24 49/50/24
f 49/50/25 50/49/25 51/52/25
f 51/52/26 52/51/26 53/54/26
f 53/54/27 54/53/27 55/56/27
f 55/56/28 56/55/28 57/58/28
f 57/58/29 58/57/29 59/60/29
f 59/60/30 60/59/30 61/62/30
f 6/73/31 4/74/31 2/75/31
f 2/75/31 64/76/31 6/73/31
f 62/77/31 60/78/31 58/79/31
f 58/79/31 56/80/31 54/65/31
f 54/65/31 52/81/31 50/82/31
f 50/82/31 48/83/31 54/65/31
f 46/84/31 44/85/31 38/63/31
f 42/86/31 40/87/31 38/63/31
f 38/63/31 36/88/31 34/89/31
f 34/89/31 32/90/31 30/91/31
f 30/91/31 28/92/31 26/93/31
f 26/93/31 24/94/31 22/64/31
f 22/64/31 20/95/31 18/96/31
f 18/96/31 16/97/31 22/64/31
f 14/98/31 12/99/31 10/100/31
f 10/100/31 8/101/31 6/73/31
f 6/73/31 64/76/31 62/77/31
f 62/77/31 58/79/31 6/73/31
f 54/65/31 48/83/31 46/84/31
f 44/85/31 42/86/31 38/63/31
f 38/63/31 34/89/31 22/64/31
f 30/91/31 26/93/31 22/64/31
f 22/64/31 16/97/31 14/98/31
f 14/98/31 10/100/31 22/64/31
f 6/73/31 58/79/31 54/65/31
f 54/65/31 46/84/31 38/63/31
f 34/89/31 30/91/31 22/64/31
f 22/64/31 10/100/31 6/73/31
f 6/73/31 54/65/31 22/64/31
f 63/68/32 64/66/32 1/67/32
f 61/62/33 62/61/33 63/68/33
f 63/102/34 1/103/34 3/104/34
f 3/104/34 5/105/34 7/106/34
f 7/106/34 9/107/34 11/108/34
f 11/108/34 13/109/34 7/106/34
f 15/71/34 17/110/34 19/111/34
f 19/111/34 21/112/34 15/71/34
f 23/113/34 25/114/34 31/69/34
f 27/115/34 29/116/34 31/69/34
f 31/69/34 33/117/34 35/118/34
f 35/118/34 37/119/34 39/120/34
f 39/120/34 41/121/34 43/122/34
f 43/122/34 45/123/34 47/70/34
f 47/70/34 49/124/34 51/125/34
f 51/125/34 53/126/34 55/127/34
f 55/127/34 57/128/34 63/102/34
f 59/129/34 61/130/34 63/102/34
f 63/102/34 3/104/34 15/71/34
f 7/106/34 13/109/34 15/71/34
f 15/71/34 21/112/34 23/113/34
f 25/114/34 27/115/34 31/69/34
f 31/69/34 35/118/34 47/70/34
f 39/120/34 43/122/34 47/70/34
f 47/70/34 51/125/34 63/102/34
f 57/128/34 59/129/34 63/102/34
f 3/104/34 7/106/34 15/71/34
f 15/71/34 23/113/34 31/69/34
f 35/118/34 39/120/34 47/70/34
f 51/125/34 55/127/34 63/102/34
f 63/102/34 15/71/34 47/70/34
