# Blender v2.76 (sub 0) OBJ File: 'testWall.blend'
# www.blender.org
mtllib testWall.mtl
o Cube.001
v 0.500000 3.000000 0.500000
v -0.500000 3.000000 0.500000
v -0.500000 0.000000 0.500000
v 0.500000 3.000000 -0.500000
v -0.500000 3.000000 -0.500000
v 0.500000 0.000000 -0.500000
v -0.500000 0.000000 -0.500000
v 0.500000 0.000000 0.500000
vt 0.857143 1.000000
vt 0.714286 1.000000
vt 0.714286 0.000000
vt 1.000000 0.333333
vt 0.857143 0.333333
vt 0.857143 0.000000
vt 0.571429 0.000000
vt 1.000000 0.666667
vt 0.857143 0.666667
vt 0.285714 1.000000
vt 0.000000 1.000000
vt 0.000000 0.000000
vt 0.285714 0.000000
vt 0.571429 1.000000
vt 1.000000 0.000000
vn 0.000000 -0.000000 1.000000
vn 0.000000 1.000000 0.000000
vn 0.000000 0.000000 -1.000000
vn 0.000000 -1.000000 -0.000000
vn -1.000000 -0.000000 0.000000
vn 1.000000 -0.000000 0.000000
usemtl Material.001
s 1
f 1/1/1 2/2/1 3/3/1
f 4/4/2 5/5/2 2/6/2
f 6/7/3 7/3/3 5/2/3
f 8/8/4 3/9/4 7/5/4
f 2/10/5 5/11/5 7/12/5
f 4/13/6 1/7/6 8/14/6
f 8/6/1 1/1/1 3/3/1
f 1/15/2 4/4/2 2/6/2
f 4/14/3 6/7/3 5/2/3
f 6/4/4 8/8/4 7/5/4
f 3/13/5 2/10/5 7/12/5
f 6/10/6 4/13/6 8/14/6
